<svg xmlns="http://www.w3.org/2000/svg" id="export" class="canvas" preserveAspectRatio="xMidYMid meet" style="" width="294" height="625"><rect id="background" fill="#fff" pointer-events="all" width="294" height="625"/><g id="origin" transform="translate(13.338000488281251, 13.338000488281251) scale(1)"><g id="clusters" class="clusters"/><g id="edge-paths" class="edge-paths" style="pointer-events: none;"><defs><marker id="arrowhead" viewBox="0 0 10 10" refX="9" refY="5" markerUnits="strokeWidth" markerWidth="8" markerHeight="6" orient="auto" style="fill: rgb(0, 0, 0);"><path d="M 0 0 L 10 5 L 0 10 L 4 5 z" style="stroke-width: 1px;"/></marker><marker id="arrowhead-select" viewBox="0 0 10 10" refX="9" refY="5" markerUnits="strokeWidth" markerWidth="8" markerHeight="6" orient="auto" style="fill: rgba(220, 0, 0, 0.9);"><path d="M 0 0 L 10 5 L 0 10 L 4 5 z" style="stroke-width: 1px;"/></marker><marker id="arrowhead-hover" viewBox="0 0 10 10" refX="9" refY="5" markerUnits="strokeWidth" markerWidth="8" markerHeight="6" orient="auto" style="fill: rgba(220, 0, 0, 0.9);"><path d="M 0 0 L 10 5 L 0 10 L 4 5 z" style="stroke-width: 1px;"/></marker></defs><path id="edge-pre_OP_input" class="edge-path" d="M132.5,20.34749984741211L132.5,22.014166514078777C132.5,23.68083318074544,132.5,27.014166514078777,132.5,32.116249879201256C132.5,37.21833324432373,132.5,44.08916664123535,132.5,50.96000003814697C132.5,57.830833435058594,132.5,64.70166683197021,132.5,69.8037501970927C132.5,74.90583356221516,132.5,78.23916689554851,132.5,79.90583356221516L132.5,81.57250022888184" style="stroke: rgb(0, 0, 0); stroke-width: 1px; fill: none; marker-end: url(&quot;#arrowhead&quot;);"/><path id="edge-/Transpose_output_0" class="edge-path" d="M101.10591208220205,101.92000007629395L90.50492673516838,105.35541677474976C79.9039413881347,108.79083347320557,58.70197069406735,115.66166687011719,48.10098534703368,122.53250026702881C37.5,129.40333366394043,37.5,136.27416706085205,37.5,139.70958375930786L37.5,143.14500045776367" style="stroke: rgb(0, 0, 0); stroke-width: 1px; fill: none; marker-end: url(&quot;#arrowhead&quot;);"/><path id="edge-/Transpose_output_0" class="edge-path" d="M132.5,101.92000007629395L132.5,105.35541677474976C132.5,108.79083347320557,132.5,115.66166687011719,132.5,122.53250026702881C132.5,129.40333366394043,132.5,136.27416706085205,132.5,139.70958375930786L132.5,143.14500045776367" style="stroke: rgb(0, 0, 0); stroke-width: 1px; fill: none; marker-end: url(&quot;#arrowhead&quot;);"/><path id="edge-/Transpose_output_0" class="edge-path" d="M163.89408791779795,101.92000007629395L174.49507326483163,105.35541677474976C185.0960586118653,108.79083347320557,206.29802930593266,115.66166687011719,216.89901465296634,122.53250026702881C227.5,129.40333366394043,227.5,136.27416706085205,227.5,139.70958375930786L227.5,143.14500045776367" style="stroke: rgb(0, 0, 0); stroke-width: 1px; fill: none; marker-end: url(&quot;#arrowhead&quot;);"/><path id="edge-/Slice_output_0" class="edge-path" d="M37.5,229.69250106811523L37.5,233.12791776657104C37.5,236.56333446502686,37.5,243.43416786193848,49.271833419799805,250.68443306531526C61.04366683959961,257.934698268692,84.58733367919922,265.56439527853394,96.35916709899902,269.3792437834549L108.13100051879883,273.1940922883758" style="stroke: rgb(0, 0, 0); stroke-width: 1px; fill: none; marker-end: url(&quot;#arrowhead&quot;);"/><path id="edge-/Slice_1_output_0" class="edge-path" d="M132.5,229.69250106811523L132.5,233.12791776657104C132.5,236.56333446502686,132.5,243.43416786193848,132.5,250.3050012588501C132.5,257.1758346557617,132.5,264.04666805267334,132.5,267.48208475112915L132.5,270.91750144958496" style="stroke: rgb(0, 0, 0); stroke-width: 1px; fill: none; marker-end: url(&quot;#arrowhead&quot;);"/><path id="edge-/Slice_2_output_0" class="edge-path" d="M227.5,229.69250106811523L227.5,233.12791776657104C227.5,236.56333446502686,227.5,243.43416786193848,215.7281665802002,250.68443306531526C203.9563331604004,257.934698268692,180.41266632080078,265.56439527853394,168.64083290100098,269.3792437834549L156.86899948120117,273.1940922883758" style="stroke: rgb(0, 0, 0); stroke-width: 1px; fill: none; marker-end: url(&quot;#arrowhead&quot;);"/><path id="edge-/Concat_output_0" class="edge-path" d="M132.5,291.26500129699707L132.5,294.7004179954529C132.5,298.1358346939087,132.5,305.0066680908203,132.5,311.87750148773193C132.5,318.74833488464355,132.5,325.6191682815552,132.5,329.054584980011L132.5,332.4900016784668" style="stroke: rgb(0, 0, 0); stroke-width: 1px; fill: none; marker-end: url(&quot;#arrowhead&quot;);"/><path id="edge-/Unsqueeze_output_0" class="edge-path" d="M132.5,373.88750171661377L132.5,377.3229184150696C132.5,380.7583351135254,132.5,387.629168510437,132.5,394.50000190734863C132.5,401.37083530426025,132.5,408.2416687011719,132.5,411.6770853996277L132.5,415.1125020980835" style="stroke: rgb(0, 0, 0); stroke-width: 1px; fill: none; marker-end: url(&quot;#arrowhead&quot;);"/><path id="edge-/Resize_output_0" class="edge-path" d="M132.5,456.51000213623047L132.5,459.9454188346863C132.5,463.3808355331421,132.5,470.2516689300537,132.5,477.12250232696533C132.5,483.99333572387695,132.5,490.8641691207886,132.5,494.2995858192444L132.5,497.7350025177002" style="stroke: rgb(0, 0, 0); stroke-width: 1px; fill: none; marker-end: url(&quot;#arrowhead&quot;);"/><path id="edge-pre_OP_output" class="edge-path" d="M132.5,536.1850023269653L132.5,539.6204190254211C132.5,543.055835723877,132.5,549.9266691207886,132.5,556.7975025177002C132.5,563.6683359146118,132.5,570.5391693115234,132.5,573.9745860099792L132.5,577.4100027084351" style="stroke: rgb(0, 0, 0); stroke-width: 1px; fill: none; marker-end: url(&quot;#arrowhead&quot;);"/></g><g id="edge-labels" class="edge-labels"><text style="opacity: 1; font-family: -apple-system, BlinkMacSystemFont, &quot;Segoe WPC&quot;, &quot;Segoe UI&quot;, &quot;Ubuntu&quot;, &quot;Droid Sans&quot;, sans-serif, &quot;PingFang SC&quot;; font-size: 10px;" class="edge-label" id="edge-label-edge-pre_OP_input" transform="translate(137.5,45.34749984741211)"><tspan xml:space="preserve" dy="1em" x="1">H×W×3</tspan></text><text style="opacity: 1; font-family: -apple-system, BlinkMacSystemFont, &quot;Segoe WPC&quot;, &quot;Segoe UI&quot;, &quot;Ubuntu&quot;, &quot;Droid Sans&quot;, sans-serif, &quot;PingFang SC&quot;; font-size: 10px;" class="edge-label" id="edge-label-edge-/Transpose_output_0" transform="translate(42.5,116.92000007629395)"><tspan xml:space="preserve" dy="1em" x="1">3×H×W</tspan></text><text style="opacity: 1; font-family: -apple-system, BlinkMacSystemFont, &quot;Segoe WPC&quot;, &quot;Segoe UI&quot;, &quot;Ubuntu&quot;, &quot;Droid Sans&quot;, sans-serif, &quot;PingFang SC&quot;; font-size: 10px;" class="edge-label" id="edge-label-edge-/Transpose_output_0" transform="translate(137.5,116.92000007629395)"><tspan xml:space="preserve" dy="1em" x="1">3×H×W</tspan></text><text style="opacity: 1; font-family: -apple-system, BlinkMacSystemFont, &quot;Segoe WPC&quot;, &quot;Segoe UI&quot;, &quot;Ubuntu&quot;, &quot;Droid Sans&quot;, sans-serif, &quot;PingFang SC&quot;; font-size: 10px;" class="edge-label" id="edge-label-edge-/Transpose_output_0" transform="translate(232.5,116.92000007629395)"><tspan xml:space="preserve" dy="1em" x="1">3×H×W</tspan></text><text style="opacity: 1; font-family: -apple-system, BlinkMacSystemFont, &quot;Segoe WPC&quot;, &quot;Segoe UI&quot;, &quot;Ubuntu&quot;, &quot;Droid Sans&quot;, sans-serif, &quot;PingFang SC&quot;; font-size: 10px;" class="edge-label" id="edge-label-edge-/Slice_output_0" transform="translate(42.5,244.69250106811523)"><tspan xml:space="preserve" dy="1em" x="1">1×H×W</tspan></text><text style="opacity: 1; font-family: -apple-system, BlinkMacSystemFont, &quot;Segoe WPC&quot;, &quot;Segoe UI&quot;, &quot;Ubuntu&quot;, &quot;Droid Sans&quot;, sans-serif, &quot;PingFang SC&quot;; font-size: 10px;" class="edge-label" id="edge-label-edge-/Slice_1_output_0" transform="translate(137.5,244.69250106811523)"><tspan xml:space="preserve" dy="1em" x="1">1×H×W</tspan></text><text style="opacity: 1; font-family: -apple-system, BlinkMacSystemFont, &quot;Segoe WPC&quot;, &quot;Segoe UI&quot;, &quot;Ubuntu&quot;, &quot;Droid Sans&quot;, sans-serif, &quot;PingFang SC&quot;; font-size: 10px;" class="edge-label" id="edge-label-edge-/Slice_2_output_0" transform="translate(232.5,244.69250106811523)"><tspan xml:space="preserve" dy="1em" x="1">1×H×W</tspan></text><text style="opacity: 1; font-family: -apple-system, BlinkMacSystemFont, &quot;Segoe WPC&quot;, &quot;Segoe UI&quot;, &quot;Ubuntu&quot;, &quot;Droid Sans&quot;, sans-serif, &quot;PingFang SC&quot;; font-size: 10px;" class="edge-label" id="edge-label-edge-/Concat_output_0" transform="translate(137.5,306.26500129699707)"><tspan xml:space="preserve" dy="1em" x="1">3×H×W</tspan></text><text style="opacity: 1; font-family: -apple-system, BlinkMacSystemFont, &quot;Segoe WPC&quot;, &quot;Segoe UI&quot;, &quot;Ubuntu&quot;, &quot;Droid Sans&quot;, sans-serif, &quot;PingFang SC&quot;; font-size: 10px;" class="edge-label" id="edge-label-edge-/Unsqueeze_output_0" transform="translate(137.5,388.88750171661377)"><tspan xml:space="preserve" dy="1em" x="1">1×3×H×W</tspan></text><text style="opacity: 1; font-family: -apple-system, BlinkMacSystemFont, &quot;Segoe WPC&quot;, &quot;Segoe UI&quot;, &quot;Ubuntu&quot;, &quot;Droid Sans&quot;, sans-serif, &quot;PingFang SC&quot;; font-size: 10px;" class="edge-label" id="edge-label-edge-/Resize_output_0" transform="translate(137.5,471.51000213623047)"><tspan xml:space="preserve" dy="1em" x="1">1×3×640×640</tspan></text><text style="opacity: 1; font-family: -apple-system, BlinkMacSystemFont, &quot;Segoe WPC&quot;, &quot;Segoe UI&quot;, &quot;Ubuntu&quot;, &quot;Droid Sans&quot;, sans-serif, &quot;PingFang SC&quot;; font-size: 10px;" class="edge-label" id="edge-label-edge-pre_OP_output" transform="translate(137.5,551.1850023269653)"><tspan xml:space="preserve" dy="1em" x="1">1×3×640×640</tspan></text></g><g id="nodes" class="nodes"><g id="input-name-pre_OP_input" class="node graph-input" style="" transform="translate(90.87200164794922,0)"><g class="node-item graph-item-input" transform="translate(0,0)"><path d="M5,0h73.25599670410156a5,5 0 0 1 5,5v10.34749984741211a5,5 0 0 1 -5,5h-73.25599670410156a5,5 0 0 1 -5,-5v-10.34749984741211a5,5 0 0 1 5,-5z" style="stroke: rgb(0, 0, 0); fill: rgb(238, 238, 238); stroke-width: 0px;"/><text x="6" y="14.257499694824219" style="font-family: -apple-system, BlinkMacSystemFont, &quot;Segoe WPC&quot;, &quot;Segoe UI&quot;, &quot;Ubuntu&quot;, &quot;Droid Sans&quot;, sans-serif, &quot;PingFang SC&quot;; font-size: 11px; text-rendering: geometricprecision; user-select: none;">pre_OP_input</text><title>float32[H,W,3]</title></g><path class="node node-border" d="M5,0h73.25599670410156a5,5 0 0 1 5,5v10.34749984741211a5,5 0 0 1 -5,5h-73.25599670410156a5,5 0 0 1 -5,-5v-10.34749984741211a5,5 0 0 1 5,-5z" style="stroke: rgb(51, 51, 51); fill: none; stroke-width: 1px;"/></g><g id="node-name-/Transpose" class="node graph-node" style="" transform="translate(99.99650001525879,81.57250022888184)"><g class="node-item node-item-type node-item-type-transform" transform="translate(0,0)"><path d="M5,0h55.00699996948242a5,5 0 0 1 5,5v10.34749984741211a5,5 0 0 1 -5,5h-55.00699996948242a5,5 0 0 1 -5,-5v-10.34749984741211a5,5 0 0 1 5,-5z" style="stroke: rgb(0, 0, 0); fill: rgb(51, 85, 68); stroke-width: 0px;"/><text x="6" y="14.257499694824219" style="font-family: -apple-system, BlinkMacSystemFont, &quot;Segoe WPC&quot;, &quot;Segoe UI&quot;, &quot;Ubuntu&quot;, &quot;Droid Sans&quot;, sans-serif, &quot;PingFang SC&quot;; font-size: 11px; text-rendering: geometricprecision; user-select: none; fill: rgb(255, 255, 255);">Transpose</text><title>/Transpose</title></g><path class="node node-border" d="M5,0h55.00699996948242a5,5 0 0 1 5,5v10.34749984741211a5,5 0 0 1 -5,5h-55.00699996948242a5,5 0 0 1 -5,-5v-10.34749984741211a5,5 0 0 1 5,-5z" style="stroke: rgb(51, 51, 51); fill: none; stroke-width: 1px;"/></g><g id="node-name-/Slice" class="node graph-node" style="" transform="translate(0,143.14500045776367)"><g class="node-item node-item-type node-item-type-tensor" transform="translate(0,0)"><path d="M5,0h65a5,5 0 0 1 5,5v15.34749984741211a0,0 0 0 1 0,0h-75a0,0 0 0 1 0,0v-15.34749984741211a5,5 0 0 1 5,-5z" style="stroke: rgb(0, 0, 0); fill: rgb(89, 66, 59); stroke-width: 0px;"/><text x="6" y="14.257499694824219" style="font-family: -apple-system, BlinkMacSystemFont, &quot;Segoe WPC&quot;, &quot;Segoe UI&quot;, &quot;Ubuntu&quot;, &quot;Droid Sans&quot;, sans-serif, &quot;PingFang SC&quot;; font-size: 11px; text-rendering: geometricprecision; user-select: none; fill: rgb(255, 255, 255);">Slice</text><title>/Slice</title></g><g class="node-argument-list" transform="translate(0,20.34749984741211)"><path d="M0,0h75a0,0 0 0 1 0,0v61.20000076293945a5,5 0 0 1 -5,5h-65a5,5 0 0 1 -5,-5v-61.20000076293945a0,0 0 0 1 0,0z" style="stroke: rgb(0, 0, 0); fill: rgb(255, 255, 255); stroke-width: 0px;"/><g class="node-argument"><rect rx="3" ry="3" x="3" y="3" width="69" height="15.050000190734863" style="fill: transparent;"/><text xml:space="preserve" x="6" y="14.440000534057617" style="font-family: -apple-system, BlinkMacSystemFont, &quot;Segoe WPC&quot;, &quot;Segoe UI&quot;, &quot;Ubuntu&quot;, &quot;Droid Sans&quot;, sans-serif, &quot;PingFang SC&quot;; font-size: 9px; font-weight: normal; text-rendering: geometricprecision; user-select: none;"><title>int64[1]</title><tspan style="font-weight: bold;">starts</tspan><tspan>〈1〉</tspan></text></g><g class="node-argument"><rect rx="3" ry="3" x="3" y="18.050000190734863" width="69" height="15.050000190734863" style="fill: transparent;"/><text xml:space="preserve" x="6" y="29.49000072479248" style="font-family: -apple-system, BlinkMacSystemFont, &quot;Segoe WPC&quot;, &quot;Segoe UI&quot;, &quot;Ubuntu&quot;, &quot;Droid Sans&quot;, sans-serif, &quot;PingFang SC&quot;; font-size: 9px; font-weight: normal; text-rendering: geometricprecision; user-select: none;"><title>int64[1]</title><tspan style="font-weight: bold;">ends</tspan><tspan>〈1〉</tspan></text></g><g class="node-argument"><rect rx="3" ry="3" x="3" y="33.10000038146973" width="69" height="15.050000190734863" style="fill: transparent;"/><text xml:space="preserve" x="6" y="44.540000915527344" style="font-family: -apple-system, BlinkMacSystemFont, &quot;Segoe WPC&quot;, &quot;Segoe UI&quot;, &quot;Ubuntu&quot;, &quot;Droid Sans&quot;, sans-serif, &quot;PingFang SC&quot;; font-size: 9px; font-weight: normal; text-rendering: geometricprecision; user-select: none;"><title>int64[1]</title><tspan style="font-weight: bold;">axes</tspan><tspan>〈1〉</tspan></text></g><g class="node-argument"><rect rx="3" ry="3" x="3" y="48.15000057220459" width="69" height="15.050000190734863" style="fill: transparent;"/><text xml:space="preserve" x="6" y="59.59000110626221" style="font-family: -apple-system, BlinkMacSystemFont, &quot;Segoe WPC&quot;, &quot;Segoe UI&quot;, &quot;Ubuntu&quot;, &quot;Droid Sans&quot;, sans-serif, &quot;PingFang SC&quot;; font-size: 9px; font-weight: normal; text-rendering: geometricprecision; user-select: none;"><title>int64[1]</title><tspan style="font-weight: bold;">steps</tspan><tspan>〈1〉</tspan></text></g><line class="node" x1="0" x2="75" y1="0" y2="0" style="stroke: rgb(51, 51, 51); fill: none; stroke-width: 1px;"/></g><path class="node node-border" d="M5,0h65a5,5 0 0 1 5,5v76.54750061035156a5,5 0 0 1 -5,5h-65a5,5 0 0 1 -5,-5v-76.54750061035156a5,5 0 0 1 5,-5z" style="stroke: rgb(51, 51, 51); fill: none; stroke-width: 1px;"/></g><g id="node-name-/Slice_1" class="node graph-node" style="" transform="translate(95,143.14500045776367)"><g class="node-item node-item-type node-item-type-tensor" transform="translate(0,0)"><path d="M5,0h65a5,5 0 0 1 5,5v15.34749984741211a0,0 0 0 1 0,0h-75a0,0 0 0 1 0,0v-15.34749984741211a5,5 0 0 1 5,-5z" style="stroke: rgb(0, 0, 0); fill: rgb(89, 66, 59); stroke-width: 0px;"/><text x="6" y="14.257499694824219" style="font-family: -apple-system, BlinkMacSystemFont, &quot;Segoe WPC&quot;, &quot;Segoe UI&quot;, &quot;Ubuntu&quot;, &quot;Droid Sans&quot;, sans-serif, &quot;PingFang SC&quot;; font-size: 11px; text-rendering: geometricprecision; user-select: none; fill: rgb(255, 255, 255);">Slice</text><title>/Slice_1</title></g><g class="node-argument-list" transform="translate(0,20.34749984741211)"><path d="M0,0h75a0,0 0 0 1 0,0v61.20000076293945a5,5 0 0 1 -5,5h-65a5,5 0 0 1 -5,-5v-61.20000076293945a0,0 0 0 1 0,0z" style="stroke: rgb(0, 0, 0); fill: rgb(255, 255, 255); stroke-width: 0px;"/><g class="node-argument"><rect rx="3" ry="3" x="3" y="3" width="69" height="15.050000190734863" style="fill: transparent;"/><text xml:space="preserve" x="6" y="14.440000534057617" style="font-family: -apple-system, BlinkMacSystemFont, &quot;Segoe WPC&quot;, &quot;Segoe UI&quot;, &quot;Ubuntu&quot;, &quot;Droid Sans&quot;, sans-serif, &quot;PingFang SC&quot;; font-size: 9px; font-weight: normal; text-rendering: geometricprecision; user-select: none;"><title>int64[1]</title><tspan style="font-weight: bold;">starts</tspan><tspan>〈1〉</tspan></text></g><g class="node-argument"><rect rx="3" ry="3" x="3" y="18.050000190734863" width="69" height="15.050000190734863" style="fill: transparent;"/><text xml:space="preserve" x="6" y="29.49000072479248" style="font-family: -apple-system, BlinkMacSystemFont, &quot;Segoe WPC&quot;, &quot;Segoe UI&quot;, &quot;Ubuntu&quot;, &quot;Droid Sans&quot;, sans-serif, &quot;PingFang SC&quot;; font-size: 9px; font-weight: normal; text-rendering: geometricprecision; user-select: none;"><title>int64[1]</title><tspan style="font-weight: bold;">ends</tspan><tspan>〈1〉</tspan></text></g><g class="node-argument"><rect rx="3" ry="3" x="3" y="33.10000038146973" width="69" height="15.050000190734863" style="fill: transparent;"/><text xml:space="preserve" x="6" y="44.540000915527344" style="font-family: -apple-system, BlinkMacSystemFont, &quot;Segoe WPC&quot;, &quot;Segoe UI&quot;, &quot;Ubuntu&quot;, &quot;Droid Sans&quot;, sans-serif, &quot;PingFang SC&quot;; font-size: 9px; font-weight: normal; text-rendering: geometricprecision; user-select: none;"><title>int64[1]</title><tspan style="font-weight: bold;">axes</tspan><tspan>〈1〉</tspan></text></g><g class="node-argument"><rect rx="3" ry="3" x="3" y="48.15000057220459" width="69" height="15.050000190734863" style="fill: transparent;"/><text xml:space="preserve" x="6" y="59.59000110626221" style="font-family: -apple-system, BlinkMacSystemFont, &quot;Segoe WPC&quot;, &quot;Segoe UI&quot;, &quot;Ubuntu&quot;, &quot;Droid Sans&quot;, sans-serif, &quot;PingFang SC&quot;; font-size: 9px; font-weight: normal; text-rendering: geometricprecision; user-select: none;"><title>int64[1]</title><tspan style="font-weight: bold;">steps</tspan><tspan>〈1〉</tspan></text></g><line class="node" x1="0" x2="75" y1="0" y2="0" style="stroke: rgb(51, 51, 51); fill: none; stroke-width: 1px;"/></g><path class="node node-border" d="M5,0h65a5,5 0 0 1 5,5v76.54750061035156a5,5 0 0 1 -5,5h-65a5,5 0 0 1 -5,-5v-76.54750061035156a5,5 0 0 1 5,-5z" style="stroke: rgb(51, 51, 51); fill: none; stroke-width: 1px;"/></g><g id="node-name-/Slice_2" class="node graph-node" style="" transform="translate(190,143.14500045776367)"><g class="node-item node-item-type node-item-type-tensor" transform="translate(0,0)"><path d="M5,0h65a5,5 0 0 1 5,5v15.34749984741211a0,0 0 0 1 0,0h-75a0,0 0 0 1 0,0v-15.34749984741211a5,5 0 0 1 5,-5z" style="stroke: rgb(0, 0, 0); fill: rgb(89, 66, 59); stroke-width: 0px;"/><text x="6" y="14.257499694824219" style="font-family: -apple-system, BlinkMacSystemFont, &quot;Segoe WPC&quot;, &quot;Segoe UI&quot;, &quot;Ubuntu&quot;, &quot;Droid Sans&quot;, sans-serif, &quot;PingFang SC&quot;; font-size: 11px; text-rendering: geometricprecision; user-select: none; fill: rgb(255, 255, 255);">Slice</text><title>/Slice_2</title></g><g class="node-argument-list" transform="translate(0,20.34749984741211)"><path d="M0,0h75a0,0 0 0 1 0,0v61.20000076293945a5,5 0 0 1 -5,5h-65a5,5 0 0 1 -5,-5v-61.20000076293945a0,0 0 0 1 0,0z" style="stroke: rgb(0, 0, 0); fill: rgb(255, 255, 255); stroke-width: 0px;"/><g class="node-argument"><rect rx="3" ry="3" x="3" y="3" width="69" height="15.050000190734863" style="fill: transparent;"/><text xml:space="preserve" x="6" y="14.440000534057617" style="font-family: -apple-system, BlinkMacSystemFont, &quot;Segoe WPC&quot;, &quot;Segoe UI&quot;, &quot;Ubuntu&quot;, &quot;Droid Sans&quot;, sans-serif, &quot;PingFang SC&quot;; font-size: 9px; font-weight: normal; text-rendering: geometricprecision; user-select: none;"><title>int64[1]</title><tspan style="font-weight: bold;">starts</tspan><tspan>〈1〉</tspan></text></g><g class="node-argument"><rect rx="3" ry="3" x="3" y="18.050000190734863" width="69" height="15.050000190734863" style="fill: transparent;"/><text xml:space="preserve" x="6" y="29.49000072479248" style="font-family: -apple-system, BlinkMacSystemFont, &quot;Segoe WPC&quot;, &quot;Segoe UI&quot;, &quot;Ubuntu&quot;, &quot;Droid Sans&quot;, sans-serif, &quot;PingFang SC&quot;; font-size: 9px; font-weight: normal; text-rendering: geometricprecision; user-select: none;"><title>int64[1]</title><tspan style="font-weight: bold;">ends</tspan><tspan>〈1〉</tspan></text></g><g class="node-argument"><rect rx="3" ry="3" x="3" y="33.10000038146973" width="69" height="15.050000190734863" style="fill: transparent;"/><text xml:space="preserve" x="6" y="44.540000915527344" style="font-family: -apple-system, BlinkMacSystemFont, &quot;Segoe WPC&quot;, &quot;Segoe UI&quot;, &quot;Ubuntu&quot;, &quot;Droid Sans&quot;, sans-serif, &quot;PingFang SC&quot;; font-size: 9px; font-weight: normal; text-rendering: geometricprecision; user-select: none;"><title>int64[1]</title><tspan style="font-weight: bold;">axes</tspan><tspan>〈1〉</tspan></text></g><g class="node-argument"><rect rx="3" ry="3" x="3" y="48.15000057220459" width="69" height="15.050000190734863" style="fill: transparent;"/><text xml:space="preserve" x="6" y="59.59000110626221" style="font-family: -apple-system, BlinkMacSystemFont, &quot;Segoe WPC&quot;, &quot;Segoe UI&quot;, &quot;Ubuntu&quot;, &quot;Droid Sans&quot;, sans-serif, &quot;PingFang SC&quot;; font-size: 9px; font-weight: normal; text-rendering: geometricprecision; user-select: none;"><title>int64[1]</title><tspan style="font-weight: bold;">steps</tspan><tspan>〈1〉</tspan></text></g><line class="node" x1="0" x2="75" y1="0" y2="0" style="stroke: rgb(51, 51, 51); fill: none; stroke-width: 1px;"/></g><path class="node node-border" d="M5,0h65a5,5 0 0 1 5,5v76.54750061035156a5,5 0 0 1 -5,5h-65a5,5 0 0 1 -5,-5v-76.54750061035156a5,5 0 0 1 5,-5z" style="stroke: rgb(51, 51, 51); fill: none; stroke-width: 1px;"/></g><g id="node-name-/Concat" class="node graph-node" style="" transform="translate(108.13100051879883,270.91750144958496)"><g class="node-item node-item-type node-item-type-tensor" transform="translate(0,0)"><path d="M5,0h38.737998962402344a5,5 0 0 1 5,5v10.34749984741211a5,5 0 0 1 -5,5h-38.737998962402344a5,5 0 0 1 -5,-5v-10.34749984741211a5,5 0 0 1 5,-5z" style="stroke: rgb(0, 0, 0); fill: rgb(89, 66, 59); stroke-width: 0px;"/><text x="6" y="14.257499694824219" style="font-family: -apple-system, BlinkMacSystemFont, &quot;Segoe WPC&quot;, &quot;Segoe UI&quot;, &quot;Ubuntu&quot;, &quot;Droid Sans&quot;, sans-serif, &quot;PingFang SC&quot;; font-size: 11px; text-rendering: geometricprecision; user-select: none; fill: rgb(255, 255, 255);">Concat</text><title>/Concat</title></g><path class="node node-border" d="M5,0h38.737998962402344a5,5 0 0 1 5,5v10.34749984741211a5,5 0 0 1 -5,5h-38.737998962402344a5,5 0 0 1 -5,-5v-10.34749984741211a5,5 0 0 1 5,-5z" style="stroke: rgb(51, 51, 51); fill: none; stroke-width: 1px;"/></g><g id="node-name-/Unsqueeze" class="node graph-node" style="" transform="translate(95,332.4900016784668)"><g class="node-item node-item-type node-item-type-transform" transform="translate(0,0)"><path d="M5,0h65a5,5 0 0 1 5,5v15.34749984741211a0,0 0 0 1 0,0h-75a0,0 0 0 1 0,0v-15.34749984741211a5,5 0 0 1 5,-5z" style="stroke: rgb(0, 0, 0); fill: rgb(51, 85, 68); stroke-width: 0px;"/><text x="6" y="14.257499694824219" style="font-family: -apple-system, BlinkMacSystemFont, &quot;Segoe WPC&quot;, &quot;Segoe UI&quot;, &quot;Ubuntu&quot;, &quot;Droid Sans&quot;, sans-serif, &quot;PingFang SC&quot;; font-size: 11px; text-rendering: geometricprecision; user-select: none; fill: rgb(255, 255, 255);">Unsqueeze</text><title>/Unsqueeze</title></g><g class="node-argument-list" transform="translate(0,20.34749984741211)"><path d="M0,0h75a0,0 0 0 1 0,0v16.050000190734863a5,5 0 0 1 -5,5h-65a5,5 0 0 1 -5,-5v-16.050000190734863a0,0 0 0 1 0,0z" style="stroke: rgb(0, 0, 0); fill: rgb(255, 255, 255); stroke-width: 0px;"/><g class="node-argument"><rect rx="3" ry="3" x="3" y="3" width="69" height="15.050000190734863" style="fill: transparent;"/><text xml:space="preserve" x="6" y="14.440000534057617" style="font-family: -apple-system, BlinkMacSystemFont, &quot;Segoe WPC&quot;, &quot;Segoe UI&quot;, &quot;Ubuntu&quot;, &quot;Droid Sans&quot;, sans-serif, &quot;PingFang SC&quot;; font-size: 9px; font-weight: normal; text-rendering: geometricprecision; user-select: none;"><title>int64[1]</title><tspan style="font-weight: bold;">axes</tspan><tspan>〈1〉</tspan></text></g><line class="node" x1="0" x2="75" y1="0" y2="0" style="stroke: rgb(51, 51, 51); fill: none; stroke-width: 1px;"/></g><path class="node node-border" d="M5,0h65a5,5 0 0 1 5,5v31.397500038146973a5,5 0 0 1 -5,5h-65a5,5 0 0 1 -5,-5v-31.397500038146973a5,5 0 0 1 5,-5z" style="stroke: rgb(51, 51, 51); fill: none; stroke-width: 1px;"/></g><g id="node-name-/Resize" class="node graph-node" style="" transform="translate(95,415.1125020980835)"><g class="node-item node-item-type" transform="translate(0,0)"><path d="M5,0h65a5,5 0 0 1 5,5v15.34749984741211a0,0 0 0 1 0,0h-75a0,0 0 0 1 0,0v-15.34749984741211a5,5 0 0 1 5,-5z" style="stroke: rgb(0, 0, 0); fill: rgb(0, 0, 0); stroke-width: 0px;"/><text x="6" y="14.257499694824219" style="font-family: -apple-system, BlinkMacSystemFont, &quot;Segoe WPC&quot;, &quot;Segoe UI&quot;, &quot;Ubuntu&quot;, &quot;Droid Sans&quot;, sans-serif, &quot;PingFang SC&quot;; font-size: 11px; text-rendering: geometricprecision; user-select: none; fill: rgb(255, 255, 255);">Resize</text><title>/Resize</title></g><g class="node-argument-list" transform="translate(0,20.34749984741211)"><path d="M0,0h75a0,0 0 0 1 0,0v16.050000190734863a5,5 0 0 1 -5,5h-65a5,5 0 0 1 -5,-5v-16.050000190734863a0,0 0 0 1 0,0z" style="stroke: rgb(0, 0, 0); fill: rgb(255, 255, 255); stroke-width: 0px;"/><g class="node-argument"><rect rx="3" ry="3" x="3" y="3" width="69" height="15.050000190734863" style="fill: transparent;"/><text xml:space="preserve" x="6" y="14.440000534057617" style="font-family: -apple-system, BlinkMacSystemFont, &quot;Segoe WPC&quot;, &quot;Segoe UI&quot;, &quot;Ubuntu&quot;, &quot;Droid Sans&quot;, sans-serif, &quot;PingFang SC&quot;; font-size: 9px; font-weight: normal; text-rendering: geometricprecision; user-select: none;"><title>int64[4]</title><tspan style="font-weight: bold;">sizes</tspan><tspan>〈4〉</tspan></text></g><line class="node" x1="0" x2="75" y1="0" y2="0" style="stroke: rgb(51, 51, 51); fill: none; stroke-width: 1px;"/></g><path class="node node-border" d="M5,0h65a5,5 0 0 1 5,5v31.397500038146973a5,5 0 0 1 -5,5h-65a5,5 0 0 1 -5,-5v-31.397500038146973a5,5 0 0 1 5,-5z" style="stroke: rgb(51, 51, 51); fill: none; stroke-width: 1px;"/></g><g id="node-name-/Mul" class="node graph-node" style="" transform="translate(90.5584945678711,497.7350025177002)"><g class="node-item node-item-type" transform="translate(0,0)"><path d="M5,0h73.88301086425781a5,5 0 0 1 5,5v15.34749984741211a0,0 0 0 1 0,0h-83.88301086425781a0,0 0 0 1 0,0v-15.34749984741211a5,5 0 0 1 5,-5z" style="stroke: rgb(0, 0, 0); fill: rgb(0, 0, 0); stroke-width: 0px;"/><text x="6" y="14.257499694824219" style="font-family: -apple-system, BlinkMacSystemFont, &quot;Segoe WPC&quot;, &quot;Segoe UI&quot;, &quot;Ubuntu&quot;, &quot;Droid Sans&quot;, sans-serif, &quot;PingFang SC&quot;; font-size: 11px; text-rendering: geometricprecision; user-select: none; fill: rgb(255, 255, 255);">Mul</text><title>/Mul</title></g><g class="node-argument-list" transform="translate(0,20.34749984741211)"><path d="M0,0h83.88301086425781a0,0 0 0 1 0,0v13.102499961853027a5,5 0 0 1 -5,5h-73.88301086425781a5,5 0 0 1 -5,-5v-13.102499961853027a0,0 0 0 1 0,0z" style="stroke: rgb(0, 0, 0); fill: rgb(255, 255, 255); stroke-width: 0px;"/><g class="node-argument"><rect rx="3" ry="3" x="3" y="3" width="77.88301086425781" height="12.102499961853027" style="fill: transparent;"/><text xml:space="preserve" x="6" y="12.392499923706055" style="font-family: -apple-system, BlinkMacSystemFont, &quot;Segoe WPC&quot;, &quot;Segoe UI&quot;, &quot;Ubuntu&quot;, &quot;Droid Sans&quot;, sans-serif, &quot;PingFang SC&quot;; font-size: 9px; font-weight: normal; text-rendering: geometricprecision; user-select: none;"><title>float32</title><tspan>B</tspan><tspan> = 0.00392156…</tspan></text></g><line class="node" x1="0" x2="83.88301086425781" y1="0" y2="0" style="stroke: rgb(51, 51, 51); fill: none; stroke-width: 1px;"/></g><path class="node node-border" d="M5,0h73.88301086425781a5,5 0 0 1 5,5v28.449999809265137a5,5 0 0 1 -5,5h-73.88301086425781a5,5 0 0 1 -5,-5v-28.449999809265137a5,5 0 0 1 5,-5z" style="stroke: rgb(51, 51, 51); fill: none; stroke-width: 1px;"/></g><g class="node" style="" transform="translate(86.80749893188477,577.4100027084351)"><g class="node-item graph-item-output" transform="translate(0,0)"><path d="M5,0h81.38500213623047a5,5 0 0 1 5,5v10.34749984741211a5,5 0 0 1 -5,5h-81.38500213623047a5,5 0 0 1 -5,-5v-10.34749984741211a5,5 0 0 1 5,-5z" style="stroke: rgb(0, 0, 0); fill: rgb(238, 238, 238); stroke-width: 0px;"/><text x="6" y="14.257499694824219" style="font-family: -apple-system, BlinkMacSystemFont, &quot;Segoe WPC&quot;, &quot;Segoe UI&quot;, &quot;Ubuntu&quot;, &quot;Droid Sans&quot;, sans-serif, &quot;PingFang SC&quot;; font-size: 11px; text-rendering: geometricprecision; user-select: none;">pre_OP_output</text><title>float32[1,3,640,640]</title></g><path class="node node-border" d="M5,0h81.38500213623047a5,5 0 0 1 5,5v10.34749984741211a5,5 0 0 1 -5,5h-81.38500213623047a5,5 0 0 1 -5,-5v-10.34749984741211a5,5 0 0 1 5,-5z" style="stroke: rgb(51, 51, 51); fill: none; stroke-width: 1px;"/></g></g></g></svg>